<?xml version="1.0" encoding="utf-8" ?>
<svg baseProfile="tiny" height="100%" version="1.2" width="100%" xmlns="http://www.w3.org/2000/svg" xmlns:ev="http://www.w3.org/2001/xml-events" xmlns:xlink="http://www.w3.org/1999/xlink"><defs /><path d="M 505,130 L 504,131 L 502,131 L 501,132 L 499,132 L 498,133 L 496,133 L 495,134 L 494,134 L 493,135 L 492,135 L 491,136 L 489,136 L 485,140 L 484,140 L 484,141 L 483,142 L 482,142 L 477,147 L 477,148 L 475,150 L 475,151 L 470,156 L 470,157 L 469,158 L 469,160 L 468,161 L 468,162 L 466,164 L 466,165 L 465,166 L 465,167 L 464,168 L 464,169 L 463,170 L 463,172 L 461,174 L 460,174 L 460,176 L 458,178 L 458,179 L 455,182 L 455,183 L 454,184 L 453,184 L 450,187 L 450,188 L 449,189 L 448,189 L 448,191 L 443,196 L 443,197 L 441,199 L 441,200 L 439,202 L 439,203 L 438,204 L 438,205 L 437,206 L 436,206 L 437,207 L 437,208 L 436,209 L 436,210 L 434,212 L 434,218 L 433,219 L 433,222 L 432,223 L 433,224 L 433,225 L 432,226 L 432,229 L 433,230 L 432,231 L 432,237 L 431,238 L 431,239 L 432,240 L 432,247 L 431,248 L 431,250 L 432,251 L 432,253 L 433,254 L 432,255 L 433,256 L 433,259 L 434,260 L 434,265 L 435,266 L 435,268 L 436,269 L 436,270 L 437,271 L 437,272 L 438,273 L 438,275 L 440,277 L 440,278 L 442,280 L 442,281 L 443,282 L 443,284 L 444,285 L 444,287 L 446,289 L 445,290 L 447,292 L 446,293 L 446,294 L 448,296 L 448,297 L 449,297 L 450,298 L 450,299 L 449,300 L 450,301 L 450,304 L 451,305 L 451,307 L 452,308 L 452,309 L 451,310 L 451,311 L 452,312 L 452,314 L 451,315 L 451,316 L 452,317 L 452,318 L 450,320 L 451,320 L 452,321 L 451,322 L 451,330 L 450,331 L 452,333 L 451,334 L 451,335 L 450,336 L 451,337 L 451,338 L 450,339 L 450,340 L 449,341 L 450,342 L 450,343 L 449,344 L 448,344 L 448,348 L 447,349 L 448,350 L 448,351 L 447,352 L 446,352 L 447,353 L 446,354 L 445,354 L 446,355 L 444,357 L 444,358 L 443,359 L 443,360 L 439,364 L 439,365 L 436,368 L 436,369 L 431,374 L 431,375 L 430,376 L 429,376 L 429,377 L 427,379 L 426,379 L 426,380 L 421,385 L 421,386 L 420,387 L 419,387 L 418,388 L 418,389 L 417,390 L 416,390 L 416,391 L 411,396 L 410,396 L 410,398 L 409,399 L 408,399 L 408,400 L 404,404 L 404,405 L 400,409 L 400,410 L 398,412 L 398,413 L 395,416 L 395,417 L 393,419 L 393,421 L 390,424 L 389,424 L 389,425 L 388,426 L 388,427 L 387,428 L 387,429 L 384,432 L 384,435 L 382,437 L 382,439 L 381,440 L 381,441 L 380,442 L 380,444 L 379,445 L 379,446 L 377,448 L 377,450 L 376,451 L 376,453 L 375,454 L 375,455 L 374,456 L 374,461 L 372,463 L 373,464 L 372,465 L 372,469 L 371,470 L 371,473 L 370,474 L 370,482 L 369,483 L 369,489 L 368,490 L 369,491 L 368,492 L 369,493 L 368,494 L 368,495 L 369,496 L 369,497 L 368,498 L 368,500 L 369,501 L 369,503 L 368,504 L 368,506 L 369,507 L 368,508 L 369,509 L 369,517 L 370,518 L 369,519 L 370,520 L 370,529 L 371,530 L 371,540 L 372,541 L 371,542 L 371,544 L 372,545 L 372,551 L 373,552 L 373,555 L 374,556 L 374,558 L 375,559 L 374,560 L 374,561 L 375,562 L 375,564 L 377,566 L 377,568 L 376,569 L 377,570 L 377,572 L 378,573 L 378,575 L 379,576 L 379,578 L 380,579 L 380,581 L 379,582 L 381,584 L 380,585 L 381,586 L 381,588 L 382,589 L 382,592 L 383,593 L 383,594 L 382,595 L 382,597 L 383,598 L 383,599 L 382,600 L 383,601 L 382,602 L 382,607 L 383,608 L 383,609 L 381,611 L 381,614 L 380,615 L 381,616 L 381,617 L 380,618 L 380,621 L 379,622 L 379,623 L 378,624 L 378,625 L 376,627 L 376,629 L 375,630 L 375,631 L 374,632 L 373,632 L 373,633 L 372,634 L 372,635 L 371,636 L 371,637 L 370,638 L 369,638 L 370,639 L 368,641 L 367,641 L 366,642 L 366,643 L 364,645 L 364,646 L 363,647 L 363,649 L 361,651 L 361,652 L 360,653 L 359,652 L 359,654 L 358,655 L 358,656 L 357,657 L 357,658 L 356,659 L 356,661 L 355,662 L 355,663 L 354,664 L 354,666 L 353,667 L 353,669 L 352,670 L 352,674 L 351,675 L 351,676 L 350,677 L 350,680 L 351,681 L 350,682 L 350,683 L 349,684 L 349,686 L 348,687 L 348,690 L 347,691 L 347,693 L 346,694 L 346,695 L 347,696 L 346,697 L 346,698 L 345,699 L 345,703 L 343,705 L 343,706 L 342,707 L 343,708 L 342,709 L 342,711 L 341,712 L 341,714 L 340,715 L 340,717 L 339,718 L 339,721 L 338,722 L 338,729 L 337,730 L 337,732 L 336,733 L 337,734 L 336,735 L 336,737 L 335,738 L 335,746 L 334,747 L 335,748 L 335,749 L 334,750 L 335,751 L 335,759 L 336,760 L 335,761 L 335,763 L 336,764 L 335,765 L 335,766 L 336,767 L 336,770 L 337,771 L 337,777 L 338,778 L 338,783 L 339,784 L 339,788 L 340,789 L 340,791 L 341,792 L 340,793 L 341,794 L 341,796 L 342,797 L 342,799 L 343,800 L 343,802 L 344,803 L 344,805 L 345,806 L 345,808 L 347,810 L 347,812 L 348,813 L 348,814 L 349,815 L 349,816 L 350,817 L 350,818 L 351,819 L 351,820 L 352,821 L 352,822 L 353,823 L 353,824 L 354,825 L 354,826 L 356,828 L 356,829 L 361,834 L 361,835 L 365,839 L 365,840 L 366,841 L 366,842 L 367,842 L 368,843 L 368,844 L 369,844 L 370,845 L 370,846 L 371,846 L 372,847 L 372,848 L 376,852 L 377,852 L 380,855 L 381,855 L 383,857 L 384,857 L 388,861 L 389,861 L 390,862 L 391,862 L 393,864 L 394,864 L 396,866 L 397,866 L 398,867 L 399,867 L 401,869 L 402,869 L 403,870 L 404,870 L 407,873 L 408,873 L 409,874 L 410,874 L 411,875 L 412,875 L 413,876 L 414,876 L 415,877 L 416,877 L 417,878 L 418,878 L 419,879 L 420,879 L 421,880 L 422,880 L 423,881 L 424,881 L 425,882 L 426,882 L 427,883 L 430,883 L 431,884 L 433,884 L 434,885 L 435,884 L 437,886 L 440,886 L 442,888 L 443,887 L 444,888 L 447,888 L 448,889 L 449,889 L 450,890 L 451,890 L 452,891 L 457,891 L 458,892 L 461,892 L 462,893 L 464,893 L 465,894 L 466,893 L 467,894 L 469,894 L 470,895 L 471,895 L 472,894 L 474,894 L 475,895 L 483,895 L 484,896 L 485,895 L 487,895 L 488,896 L 489,896 L 490,897 L 491,897 L 492,896 L 493,896 L 494,897 L 501,897 L 502,898 L 503,897 L 508,897 L 509,898 L 511,898 L 512,897 L 513,898 L 514,897 L 515,898 L 516,897 L 517,897 L 518,898 L 519,897 L 528,897 L 529,896 L 541,896 L 542,895 L 548,895 L 549,894 L 554,894 L 555,893 L 558,893 L 559,892 L 560,893 L 561,893 L 562,892 L 564,892 L 565,891 L 569,891 L 570,890 L 571,890 L 572,889 L 573,889 L 574,888 L 575,889 L 577,887 L 578,888 L 579,887 L 581,887 L 582,886 L 583,886 L 584,885 L 586,885 L 587,884 L 590,884 L 590,883 L 591,882 L 592,883 L 593,882 L 594,882 L 595,881 L 596,881 L 597,880 L 598,880 L 599,879 L 600,879 L 602,877 L 603,877 L 604,876 L 605,876 L 606,875 L 608,875 L 609,874 L 610,874 L 611,873 L 612,873 L 613,872 L 614,872 L 615,871 L 616,871 L 617,870 L 618,870 L 619,869 L 620,869 L 621,868 L 622,868 L 623,867 L 624,867 L 625,866 L 626,866 L 627,865 L 628,865 L 630,863 L 631,863 L 634,860 L 635,860 L 636,859 L 637,859 L 641,855 L 642,855 L 644,853 L 645,853 L 651,847 L 652,847 L 652,846 L 653,845 L 654,845 L 655,844 L 655,843 L 658,840 L 658,839 L 660,837 L 660,836 L 661,835 L 662,835 L 664,833 L 664,832 L 666,830 L 666,829 L 667,828 L 667,827 L 668,826 L 668,825 L 669,824 L 669,823 L 672,820 L 672,818 L 674,816 L 674,814 L 675,813 L 675,812 L 676,811 L 676,810 L 677,809 L 677,807 L 678,806 L 678,804 L 679,803 L 680,803 L 679,802 L 680,801 L 680,799 L 682,797 L 682,796 L 683,795 L 683,793 L 684,792 L 683,791 L 684,790 L 684,787 L 685,786 L 684,785 L 685,784 L 685,783 L 686,782 L 686,775 L 687,774 L 687,762 L 688,761 L 687,760 L 687,755 L 686,754 L 687,753 L 686,752 L 687,751 L 687,748 L 686,747 L 686,739 L 685,738 L 685,732 L 684,731 L 684,726 L 683,725 L 683,722 L 682,721 L 682,717 L 681,716 L 681,713 L 680,712 L 680,711 L 679,710 L 679,708 L 678,707 L 678,705 L 677,704 L 678,703 L 677,702 L 677,700 L 676,699 L 676,696 L 675,695 L 675,694 L 674,693 L 675,692 L 674,691 L 674,689 L 673,688 L 673,685 L 672,684 L 672,683 L 671,682 L 672,681 L 672,680 L 671,679 L 671,676 L 670,675 L 670,669 L 669,668 L 669,667 L 668,666 L 668,664 L 667,663 L 667,661 L 666,660 L 666,657 L 664,655 L 664,654 L 663,653 L 663,651 L 661,649 L 661,648 L 660,647 L 660,646 L 659,645 L 659,644 L 656,641 L 656,640 L 655,639 L 656,638 L 655,638 L 654,637 L 654,636 L 653,635 L 653,634 L 649,630 L 649,628 L 648,627 L 648,626 L 647,625 L 647,624 L 646,624 L 645,623 L 646,622 L 645,621 L 645,620 L 644,619 L 645,618 L 644,617 L 644,615 L 642,613 L 643,612 L 642,611 L 642,610 L 643,609 L 642,608 L 642,607 L 641,606 L 642,605 L 642,604 L 641,603 L 641,600 L 642,599 L 641,598 L 642,597 L 641,596 L 642,595 L 641,594 L 642,593 L 642,583 L 643,582 L 643,580 L 644,579 L 644,574 L 645,573 L 644,572 L 646,570 L 645,569 L 646,568 L 646,565 L 648,563 L 647,562 L 648,561 L 648,559 L 649,558 L 649,555 L 650,554 L 649,553 L 650,552 L 650,549 L 651,548 L 650,547 L 651,546 L 651,539 L 652,538 L 651,537 L 651,533 L 652,532 L 652,530 L 651,529 L 651,528 L 652,527 L 652,515 L 653,514 L 653,513 L 652,512 L 653,511 L 653,490 L 652,489 L 653,488 L 653,486 L 652,485 L 652,472 L 651,471 L 651,468 L 650,467 L 650,462 L 649,461 L 649,459 L 648,458 L 648,455 L 647,455 L 646,454 L 646,450 L 645,449 L 645,447 L 644,446 L 644,443 L 642,441 L 642,440 L 641,439 L 641,438 L 640,437 L 640,435 L 639,434 L 639,433 L 637,431 L 637,430 L 636,429 L 636,428 L 635,427 L 635,426 L 633,424 L 633,422 L 630,419 L 630,418 L 628,416 L 628,415 L 626,413 L 626,412 L 622,408 L 622,407 L 621,407 L 620,406 L 620,405 L 617,402 L 617,401 L 608,392 L 607,392 L 605,390 L 605,389 L 604,389 L 602,387 L 602,386 L 601,386 L 599,384 L 599,383 L 597,381 L 597,380 L 595,378 L 594,378 L 593,377 L 593,376 L 592,375 L 592,374 L 591,374 L 589,372 L 589,371 L 587,369 L 587,367 L 586,366 L 586,365 L 585,365 L 584,364 L 584,361 L 583,362 L 582,362 L 581,361 L 582,360 L 582,359 L 581,359 L 580,358 L 580,354 L 579,353 L 579,352 L 578,351 L 578,350 L 577,349 L 577,346 L 576,345 L 577,344 L 576,344 L 575,343 L 576,342 L 575,341 L 576,340 L 574,338 L 574,330 L 573,329 L 574,328 L 573,327 L 574,326 L 574,320 L 573,319 L 573,316 L 574,315 L 574,310 L 575,309 L 575,308 L 574,307 L 575,306 L 575,301 L 576,300 L 576,297 L 577,296 L 577,294 L 578,293 L 578,292 L 579,291 L 579,290 L 580,289 L 580,287 L 581,286 L 581,284 L 583,282 L 583,277 L 585,275 L 585,273 L 586,272 L 586,271 L 587,270 L 587,269 L 588,268 L 588,266 L 589,265 L 589,264 L 588,263 L 588,262 L 589,261 L 589,259 L 590,258 L 589,257 L 590,256 L 590,247 L 591,246 L 591,242 L 590,241 L 591,240 L 591,236 L 590,235 L 591,234 L 591,233 L 590,232 L 591,231 L 590,230 L 590,220 L 589,219 L 589,216 L 588,215 L 588,214 L 587,213 L 588,212 L 586,210 L 586,207 L 584,205 L 584,204 L 583,203 L 583,201 L 581,199 L 581,198 L 578,195 L 578,194 L 576,192 L 575,192 L 573,190 L 572,190 L 571,189 L 571,188 L 567,184 L 567,183 L 565,181 L 565,180 L 564,180 L 562,178 L 562,176 L 561,175 L 561,174 L 560,173 L 560,172 L 559,172 L 558,171 L 558,170 L 557,169 L 557,168 L 555,166 L 555,165 L 554,164 L 554,163 L 553,162 L 553,161 L 552,160 L 552,158 L 551,157 L 551,156 L 549,154 L 549,153 L 546,150 L 546,149 L 545,148 L 545,147 L 541,143 L 541,142 L 540,142 L 534,136 L 531,136 L 529,134 L 527,134 L 526,133 L 525,133 L 524,132 L 523,132 L 522,131 L 520,131 L 519,132 L 518,131 L 513,131 L 512,130 L 511,131 L 509,131 L 508,130 Z" fill="white" /></svg>